<svg xmlns="http://www.w3.org/2000/svg" width="21" height="20">
    <path fill="gray" fill-rule="evenodd" d="M16 16c-1.101 0-1.991.9-1.991 2s.89 2 1.991 2c1.099 0 2-.9 2-2s-.901-2-2-2zM4.008 18c0 1.1.891 2 1.991 2 1.101 0 2-.9 2-2s-.899-2-2-2c-1.1 0-1.991.9-1.991 2zM17.309 4H5.16L7.4 8.73l.129.27h7.021l2.759-5zM4.21 2h15.791l.16.96-3.862 7.01c-.34.62-.998 1.03-1.749 1.03H7.1l-.901 1.63-.03.12c0 .14.123.25.249.25H18v2H5.999C4.899 15 4 14.1 4 13c0-.35.089-.68.249-.96l1.352-2.45L2 2H.001V0H3.27l.94 2z"/>
</svg>
