<svg xmlns="http://www.w3.org/2000/svg" width="20" height="20">
    <path fill="#E6E4E4" fill-rule="evenodd" d="M6 16c-1.099 0-1.988.9-1.988 2S4.901 20 6 20c1.1 0 1.999-.9 1.999-2S7.1 16 6 16zM-.001 0v2h2l3.6 7.59-1.349 2.45c-.159.28-.249.61-.249.96 0 1.1.9 2 1.999 2h12v-2H6.422c-.141 0-.252-.11-.252-.25l.029-.12L7.1 11h7.451c.75 0 1.41-.41 1.749-1.03l3.58-6.49c.079-.14.119-.31.119-.48 0-.55-.45-1-.998-1H4.21l-.94-2H-.001zm16.002 16c-1.099 0-1.99.9-1.99 2s.891 2 1.99 2c1.1 0 1.999-.9 1.999-2s-.899-2-1.999-2z"/>
</svg>
