<svg xmlns="http://www.w3.org/2000/svg" width="16" height="16">
    <path fill="#666" fill-rule="evenodd" d="M14.672 14.737C13.827 15.579 12.618 16 11.29 16H4.709c-1.327 0-2.537-.421-3.382-1.263C.422 13.895 0 12.692 0 11.308V4.692C0 1.925 1.872 0 4.709 0h6.642c1.389 0 2.535.481 3.38 1.323.847.842 1.268 1.986 1.268 3.369v6.616c0 1.384-.482 2.587-1.327 3.429zM14 4.986c0-.885-.276-1.603-.774-2.157C12.673 2.276 11.954 2 11.015 2H4.93c-.885 0-1.659.276-2.156.774C2.276 3.272 2 4.046 2 4.931v6.082c0 .885.276 1.66.83 2.213.553.497 1.272.774 2.154.774h6.031c.884 0 1.658-.277 2.155-.774.554-.498.83-1.272.83-2.157V4.986zM12.001 5C11.436 5 11 4.563 11 4c0-.562.436-1 1.001-1 .563 0 .999.438.999 1 0 .563-.436 1-.999 1zm-4.03 7C5.753 12 4 10.177 4 8c0-2.235 1.812-4 3.971-4 2.16 0 4.03 1.765 4.03 4 0 2.235-1.811 4-4.03 4zM8 6c-1.104 0-1.999.895-1.999 2 0 1.104.895 2 1.999 2 1.105 0 2-.896 2-2 0-1.105-.895-2-2-2z"/>
</svg>
