<svg xmlns="http://www.w3.org/2000/svg" width="14" height="12">
    <path fill="#666" fill-rule="evenodd" d="M14 1.533c-.522.24-1.078.397-1.647.467.602-.373 1.051-.957 1.263-1.642-.563.345-1.18.589-1.824.721C11.251.481 10.489.141 9.69.143c-.767.005-1.499.32-2.038.877-.538.556-.839 1.309-.834 2.091 0 .228.027.454.076.677C4.576 3.665 2.422 2.536.974.686c-.763 1.356-.376 3.081.888 3.963-.456-.015-.903-.143-1.301-.371v.037c-.006 1.406.957 2.622 2.305 2.911-.422.118-.866.136-1.296.051.369 1.203 1.448 2.032 2.683 2.061-1.014.824-2.271 1.272-3.567 1.271-.226.078-.472.063-.686-.042 1.309.872 2.838 1.336 4.4 1.336 2.187 0 4.282-.894 5.817-2.48 1.537-1.587 2.385-3.735 2.356-5.965 0-.129 0-.257-.008-.384.565-.422 1.051-.944 1.435-1.541z"/>
</svg>
